<svg id="visual" viewBox="0 0 900 600" width="900" height="600" xmlns="http://www.w3.org/2000/svg" xmlns:xlink="http://www.w3.org/1999/xlink" version="1.1"><path d="M497 0L395 0L395 86L360 86L360 171L506 171L506 257L333 257L333 343L492 343L492 429L430 429L430 514L395 514L395 600L0 600L0 514L0 514L0 429L0 429L0 343L0 343L0 257L0 257L0 171L0 171L0 86L0 86L0 0L0 0Z" fill="#69a2cc"></path><path d="M341 0L251 0L251 86L236 86L236 171L253 171L253 257L291 257L291 343L340 343L340 429L311 429L311 514L270 514L270 600L0 600L0 514L0 514L0 429L0 429L0 343L0 343L0 257L0 257L0 171L0 171L0 86L0 86L0 0L0 0Z" fill="#1c5e87"></path><path d="M108 0L184 0L184 86L141 86L141 171L179 171L179 257L116 257L116 343L89 343L89 429L210 429L210 514L165 514L165 600L0 600L0 514L0 514L0 429L0 429L0 343L0 343L0 257L0 257L0 171L0 171L0 86L0 86L0 0L0 0Z" fill="#69a2cc"></path></svg>